<?xml version="1.0" encoding="UTF-8"?><svg xmlns="http://www.w3.org/2000/svg" xmlns:xlink="http://www.w3.org/1999/xlink" clip-rule="evenodd" fill-rule="evenodd" height="4234.0" image-rendering="optimizeQuality" preserveAspectRatio="xMidYMid meet" shape-rendering="geometricPrecision" text-rendering="geometricPrecision" version="1.0" viewBox="2930.0 2455.0 3284.0 4234.0" width="3284.0" zoomAndPan="magnify"><defs><linearGradient gradientUnits="userSpaceOnUse" id="a" x1="10043" x2="-898.9" xlink:actuate="onLoad" xlink:show="other" xlink:type="simple" xmlns:xlink="http://www.w3.org/1999/xlink" y1="6303" y2="2841"><stop offset="0" stop-color="#48CFAE"/><stop offset="1" stop-color="#4FC0E8"/></linearGradient></defs><g id="change1_1"><path d="m3014 2455h3116c46 0 84 38 84 85v4064c0 47-38 85-84 85h-3116c-46 0-84-38-84-85v-4064c0-47 38-85 84-85zm406 3556c-46 0-84-37-84-84s38-85 84-85h2303c47 0 85 38 85 85s-38 84-85 84h-2303zm0-677c-46 0-84-38-84-85 0-46 38-84 84-84h2303c47 0 85 38 85 84 0 47-38 85-85 85h-2303zm1363-2198l805-1c46 0 84 38 84 85h1v677c0 47-38 85-85 85-3 0-6 0-8-1l-805-5c-47 0-84-38-84-84h-1v-672c0-47 38-85 85-85 3 0 5 0 8 1zm720 168h-643v504l643 4v-508zm-2082-3c-47 0-85-38-85-84 0-47 38-84 85-84l948-1c46 0 84 38 84 85 0 46-38 84-84 84h-948zm-1 1355c-46 0-84-37-84-84s38-84 84-84l2303-1c47 0 85 38 85 85 0 46-38 84-85 84h-2303zm1-677c-47 0-85-38-85-85 0-46 38-84 85-84l950-1c46 0 84 38 84 84 0 47-38 85-84 85l-950 1zm2624-1354h-2946v3894h2946v-3894z" fill="#fff" fill-rule="nonzero"/></g></svg>